HIERARCHY
ROOT Hips
{
  OFFSET 0.000000 0.000000 0.000000
  CHANNELS 6 Xposition Yposition Zposition Zrotation Xrotation Yrotation
  JOINT RightUpLeg
  {
    OFFSET -6.358888 -8.839857 -0.116047
    CHANNELS 3 Zrotation Xrotation Yrotation
    JOINT RightLeg
    {
      OFFSET -3.729180 -35.243996 15.968971
      CHANNELS 3 Zrotation Xrotation Yrotation
      JOINT RightFoot
      {
        OFFSET -0.176708 -42.816864 -4.888965
        CHANNELS 3 Zrotation Xrotation Yrotation
        JOINT RightToeBase
        {
          OFFSET -5.104969 -4.544273 13.272233
          CHANNELS 3 Zrotation Xrotation Yrotation
          End Site
          {
            OFFSET 0.000000 4.000000 0.000000
          }
        }
      }
    }
  }
  JOINT LeftUpLeg
  {
    OFFSET 5.803660 -8.550447 -0.191574
    CHANNELS 3 Zrotation Xrotation Yrotation
    JOINT LeftLeg
    {
      OFFSET 6.777910 -38.369690 -1.134978
      CHANNELS 3 Zrotation Xrotation Yrotation
      JOINT LeftFoot
      {
        OFFSET -12.770216 -30.196836 -29.480824
        CHANNELS 3 Zrotation Xrotation Yrotation
        JOINT LeftToeBase
        {
          OFFSET 3.552616 -11.548392 5.814538
          CHANNELS 3 Zrotation Xrotation Yrotation
          End Site
          {
            OFFSET 0.000000 4.000000 0.000000
          }
        }
      }
    }
  }
  JOINT Spine
  {
    OFFSET 0.041296 12.586099 -3.610791
    CHANNELS 3 Zrotation Xrotation Yrotation
    JOINT Spine1
    {
      OFFSET -0.761557 14.307737 0.914561
      CHANNELS 3 Zrotation Xrotation Yrotation
      JOINT Spine2
      {
        OFFSET -0.666493 4.100776 2.928467
        CHANNELS 3 Zrotation Xrotation Yrotation
        JOINT Neck
        {
          OFFSET -4.103655 21.479786 -1.846088
          CHANNELS 3 Zrotation Xrotation Yrotation
          JOINT Head
          {
            OFFSET -3.781586 5.838966 7.281078
            CHANNELS 3 Zrotation Xrotation Yrotation
            End Site
            {
              OFFSET 0.000000 4.000000 0.000000
            }
          }
        }
        JOINT RightShoulder
        {
          OFFSET -9.731565 10.475993 -3.688568
          CHANNELS 3 Zrotation Xrotation Yrotation
          JOINT RightArm
          {
            OFFSET -12.424199 -3.287065 -1.084198
            CHANNELS 3 Zrotation Xrotation Yrotation
            JOINT RightForeArm
            {
              OFFSET -3.319815 -24.641001 3.929306
              CHANNELS 3 Zrotation Xrotation Yrotation
              JOINT RightHand
              {
                OFFSET 8.848815 -13.592607 20.437965
                CHANNELS 3 Zrotation Xrotation Yrotation
                End Site
                {
                  OFFSET 0.000000 4.000000 0.000000
                }
              }
            }
          }
        }
        JOINT LeftShoulder
        {
          OFFSET 5.105793 12.704479 -0.581392
          CHANNELS 3 Zrotation Xrotation Yrotation
          JOINT LeftArm
          {
            OFFSET 13.429790 1.547694 2.509416
            CHANNELS 3 Zrotation Xrotation Yrotation
            JOINT LeftForeArm
            {
              OFFSET 9.257152 -23.699188 3.521061
              CHANNELS 3 Zrotation Xrotation Yrotation
              JOINT LeftHand
              {
                OFFSET -11.838621 -13.587070 19.066637
                CHANNELS 3 Zrotation Xrotation Yrotation
                End Site
                {
                  OFFSET 0.000000 4.000000 0.000000
                }
              }
            }
          }
        }
      }
    }
  }
}
MOTION
Frames: 18
Frame Time: 0.050000
0.000000 0.000000 0.000000 -0.000000 0.000000 0.000000 -0.000000 0.000000 0.000000 -0.000000 0.000000 0.000000 -0.000000 0.000000 0.000000 -0.000000 0.000000 0.000000 -0.000000 0.000000 0.000000 -0.000000 0.000000 0.000000 -0.000000 0.000000 0.000000 -0.000000 0.000000 0.000000 -0.000000 0.000000 0.000000 -0.000000 0.000000 0.000000 -0.000000 0.000000 0.000000 -0.000000 0.000000 0.000000 -0.000000 0.000000 0.000000 -0.000000 0.000000 0.000000 -0.000000 0.000000 0.000000 -0.000000 0.000000 0.000000 -0.000000 0.000000 0.000000 -0.000000 0.000000 0.000000 -0.000000 0.000000 0.000000 -0.000000 0.000000 0.000000 -0.000000 0.000000 0.000000
-2.863013 -0.424552 -5.800517 -0.502842 0.298516 -0.144035 0.798025 -2.035299 0.465908 0.345180 -1.673336 -0.369063 -1.478171 1.267128 0.087519 0.832140 2.141236 0.009782 -2.284487 4.614710 1.206557 4.489720 -6.334909 -1.875442 -0.387173 -6.494889 -0.406153 -1.514581 7.790520 1.810064 -0.868257 -0.568785 0.209802 -0.215264 0.404582 1.090594 -1.401001 0.369772 -1.317620 2.004437 -0.989604 1.082390 1.003077 0.501840 -0.919965 1.422710 -0.356704 0.242102 0.084973 1.041680 -0.454199 1.309129 -2.465162 -0.734649 0.173059 1.319152 1.135532 0.353083 0.224605 -1.315074 0.602682 -1.696550 0.753220 1.628355 2.159054 -0.900102 0.460650 -1.115831 1.606752
-5.772136 -0.818491 -11.914171 -0.584512 0.248432 -0.167339 1.159414 -3.011989 0.729604 1.384944 -3.213419 -0.725844 -3.104678 3.739115 -0.296961 1.079389 2.226050 0.676126 -3.655959 5.998217 1.621548 6.861257 -9.125258 -2.256905 -0.336809 -9.847667 -0.794140 -2.763438 12.458172 2.940514 -1.437628 -0.345195 0.283940 -0.738444 1.350360 2.078429 -2.463110 -0.054503 -2.441364 3.880346 -1.883216 1.445928 1.367911 0.764279 -1.200660 2.127562 -0.917701 0.543371 0.343319 2.262805 -1.024413 2.176685 -3.575350 -0.900202 0.605962 1.177129 1.691436 1.262863 -0.048133 -1.823744 0.757863 -1.699133 1.276394 3.040051 2.642816 -1.252272 0.257513 -1.923005 1.998038
-8.699462 -2.125996 -18.345312 -1.012558 0.949800 -0.285892 3.482420 -9.081717 2.414821 -0.252449 -7.567222 -1.964238 -1.771089 11.623388 6.362286 -0.243182 4.143167 -5.969416 -5.311234 5.328576 1.859546 12.415519 -17.256089 -1.367237 9.344587 -19.618052 1.717980 -17.094980 29.856924 6.483028 -4.841506 0.945898 0.780046 0.007671 3.219077 4.595775 -5.004382 -0.123737 -5.227378 6.434324 -4.454549 5.856557 4.388906 -0.539766 -5.691856 2.170560 -4.888238 2.995112 2.639776 7.580773 -4.846704 6.072109 -6.981528 1.540330 0.636101 -0.183971 0.832679 2.623300 -3.068268 0.182395 3.491450 -0.838984 -0.676436 5.521830 0.776044 0.378212 -0.798306 -1.399087 0.087063
-11.711144 -1.719302 -24.092175 -0.831033 0.923915 -0.235286 0.470617 -10.455574 1.010826 1.841376 -8.414592 -0.964634 -1.368730 12.514588 6.284372 0.314255 5.397644 -6.005706 -4.217686 1.228694 0.799119 12.387927 -15.972985 -0.750807 13.970046 -19.533082 3.442367 -22.979041 32.892537 7.032273 -6.791567 2.960022 1.081544 0.046995 1.948911 5.645104 -5.141881 1.326361 -6.207800 6.449724 -5.902209 8.547061 6.208217 -1.667829 -8.577008 1.105758 -7.227199 3.749939 5.009041 9.684466 -6.481145 7.065552 -6.722922 3.550128 0.645820 -2.390258 -0.552386 1.857128 -4.749634 0.442349 5.171958 2.338945 0.080500 7.219180 -2.152414 -0.454661 -1.425014 -2.210178 -0.097604
-14.424292 -0.894070 -28.685465 -1.032396 0.837239 -0.291996 -3.101903 -9.977914 -0.961789 3.189407 -3.784988 0.761336 0.559101 10.124607 1.541483 0.539199 2.823114 -1.745254 -1.619808 -1.689965 0.177677 11.229218 -15.146388 -0.543484 15.326374 -17.247982 4.260097 -25.302371 33.163236 6.656724 -7.167863 3.879891 1.304214 -0.070574 1.129252 5.992868 -5.337999 2.340366 -6.480283 6.246163 -6.305339 10.300084 7.212450 -2.651394 -10.402599 0.552780 -8.271377 3.854945 5.724329 11.353256 -7.142672 8.719525 -6.648359 6.300284 -0.124522 -3.982574 -2.648204 1.268707 -5.911858 2.278144 6.303221 7.075133 0.057202 10.320411 -4.244303 -0.599822 -4.038252 -5.143858 -1.248616
-17.058334 -0.134295 -32.270775 -1.473227 0.976757 -0.414314 -5.433012 -7.908794 -2.426711 3.123272 0.083231 2.600832 3.112899 7.419986 -3.352300 0.770369 -0.452806 2.750235 0.423284 -3.327487 0.014765 10.970150 -15.903028 -0.430234 14.989873 -14.520912 4.422665 -26.113553 32.922284 6.261229 -6.733815 3.866023 1.433378 0.013390 0.385330 5.796474 -5.560123 3.014077 -6.247310 6.509011 -5.916547 10.513017 7.060021 -3.099343 -10.535917 0.275997 -8.081861 3.250406 5.767431 12.335099 -6.670828 8.893377 -6.761768 7.009370 0.016077 -5.016099 -3.041355 1.193639 -6.275249 3.773169 6.470130 10.938809 0.190674 13.405014 -5.135035 0.048668 -6.996200 -8.132890 -2.800503
-19.742382 0.791270 -35.242195 -1.938162 1.421248 -0.538591 -7.625514 -4.138709 -3.868383 2.537646 2.420205 4.850447 6.282996 4.626531 -8.305575 1.222914 -4.159672 7.567259 2.270110 -4.871090 -0.018196 11.292540 -17.658328 -0.268419 14.007557 -11.150538 4.368465 -26.636442 32.605264 5.874544 -6.006578 3.211611 1.470297 0.000350 -0.298771 5.485436 -5.478716 3.371427 -5.940647 6.753139 -5.028304 10.133599 6.476093 -3.327283 -10.021510 0.221750 -7.237986 2.441345 5.332149 12.494185 -5.701235 8.501776 -6.656726 6.842204 0.373711 -5.568772 -2.834151 1.406914 -6.198602 5.383413 6.637113 14.358116 0.124844 15.954574 -4.934106 0.568810 -10.185275 -11.556934 -4.310736
-22.530449 1.525319 -37.822670 -2.323968 1.950268 -0.636706 -9.607316 0.375552 -5.115655 2.212095 2.697387 6.982880 9.032153 2.360910 -12.383342 1.939961 -7.164405 11.855260 4.157958 -6.551039 -0.023016 11.418565 -18.961046 -0.212226 13.683801 -8.209966 4.685334 -27.639194 32.435991 5.472370 -5.249247 2.227590 1.446002 0.223960 -0.901772 4.949207 -5.356500 3.512209 -5.426969 6.908648 -4.310464 9.038491 5.696260 -2.919550 -8.833487 0.169126 -5.933362 1.350685 4.858767 11.955300 -4.273173 8.165695 -6.740320 6.779880 0.214226 -5.315327 -2.922504 1.857178 -5.669643 6.322762 6.712719 16.963919 0.443987 17.372117 -4.194346 0.639646 -12.921064 -14.642792 -5.506538
-25.491222 1.940793 -40.146141 -2.774781 2.439797 -0.749621 -11.043854 4.410894 -5.996654 2.680251 2.183014 8.648765 10.499203 0.711667 -15.803923 2.862178 -9.328127 15.681254 5.877281 -8.244271 0.026079 11.591080 -19.669430 -0.319401 12.776294 -6.525174 4.918510 -28.093785 32.799872 5.645355 -4.254322 1.241768 1.445003 0.754258 -0.902964 4.209809 -5.689719 3.167225 -4.718271 7.161694 -3.918311 7.543446 4.783736 -2.224743 -7.286228 0.395186 -4.762355 0.339231 4.373975 11.229318 -2.906605 7.499605 -7.091417 6.165145 0.154693 -4.578130 -2.585068 2.120531 -4.980450 6.321355 6.821261 18.633493 1.301394 18.209271 -3.028630 0.524650 -15.265943 -17.290207 -6.537019
-28.591570 2.031189 -42.325123 -3.253892 2.997545 -0.864824 -12.519721 8.623237 -6.820574 3.476794 1.001685 10.359160 11.739433 -0.627149 -19.500259 4.112094 -11.204896 19.896328 8.008762 -9.991630 0.174418 11.336695 -19.916787 -0.659959 11.985084 -4.834473 5.543055 -28.457564 32.822647 5.567280 -3.016157 -0.109746 1.424684 1.499801 -0.598708 3.212123 -6.141560 2.606729 -3.737141 7.303834 -3.885223 5.439393 3.698659 -0.984982 -5.163726 0.844384 -3.377375 -0.933453 3.925377 10.043357 -1.167729 6.325973 -7.509414 5.168533 0.014957 -3.372094 -2.080449 2.588506 -4.043977 5.632523 6.893352 19.950590 2.691448 18.016664 -1.911644 0.112881 -17.290255 -19.469712 -7.496244
-31.941372 1.746249 -44.404106 -3.908271 3.542533 -1.021307 -13.439440 13.352511 -7.315141 4.549826 -1.458464 11.841079 12.355271 -1.715158 -23.060522 5.519452 -12.374992 23.952429 10.507280 -11.634318 0.472038 11.119803 -20.161099 -1.284591 10.975019 -3.177364 6.553268 -28.783317 32.862822 5.513555 -1.328197 -1.872050 1.443323 2.465623 0.124196 1.896059 -6.861542 1.768976 -2.456737 7.413008 -3.985028 2.859191 2.367481 0.585175 -2.535232 1.655264 -1.776851 -2.367848 3.626566 8.451833 0.871868 4.635309 -8.049399 3.890869 -0.311862 -1.612811 -1.494259 3.037412 -2.747478 4.055795 6.613226 20.963493 4.867364 17.603392 -0.538796 -0.355130 -19.324434 -21.515565 -8.545710
-35.579342 1.322460 -46.473423 -4.423770 4.058330 -1.137644 -13.437187 17.350796 -7.376465 5.448176 -4.577695 12.578781 12.103284 -2.412373 -25.232368 6.448782 -12.590029 26.348518 12.680591 -13.330920 0.762585 11.080524 -20.245738 -2.014910 9.152823 -2.627525 7.454924 -28.587408 33.609736 6.184465 0.274534 -3.462663 1.477782 3.325623 1.128008 0.639794 -7.674902 0.657621 -1.294386 7.543218 -4.138049 0.511794 1.074311 1.919746 -0.111251 2.639930 -0.238946 -4.342120 3.636819 7.123716 3.413539 2.214620 -8.338673 2.339446 -0.269214 -0.414614 -0.673043 3.211847 -1.466288 1.696386 5.894979 20.940799 7.434067 17.314482 1.268553 -0.906679 -20.679423 -23.087243 -9.122757
-39.483620 1.039588 -48.615379 -4.969711 4.340309 -1.265978 -12.657940 20.570215 -7.082501 5.957195 -7.629636 12.746743 13.757245 -0.154827 -23.436762 5.325148 -16.021584 24.937931 14.298613 -14.546683 1.022373 11.486208 -20.888875 -2.381127 8.726774 -0.524119 8.241661 -29.357507 33.478132 5.876020 1.186646 -5.017999 1.540327 3.823774 2.454429 0.109950 -7.480869 -0.265665 -0.856622 7.040853 -5.417815 -1.554768 0.425961 4.041186 1.980065 3.561502 0.697605 -5.427331 3.048581 5.375803 4.934578 0.137592 -5.474823 1.581170 0.351457 -1.679836 -0.546895 3.219079 -0.350327 -1.269970 4.861487 21.754164 10.990506 17.316054 2.602060 -2.466705 -21.752482 -25.496195 -8.931439
-43.668076 0.526124 -50.762493 -5.121666 4.530430 -1.296937 -10.628039 22.437678 -6.406087 8.468875 -11.226806 12.273132 6.962577 -3.241584 -23.165794 5.785572 -10.212829 23.683075 16.416204 -16.393026 1.239482 11.604431 -20.557444 -3.856032 5.792323 -0.125648 10.016300 -28.590472 34.247843 6.718538 2.758941 -5.617062 1.583246 4.065577 2.430745 -1.065886 -8.415663 -0.501481 0.344192 6.160903 -6.253581 -2.296920 0.497840 5.423481 2.702963 3.945588 1.845075 -7.946693 3.990247 4.534008 7.870091 -1.561112 -6.195218 0.965676 -0.093812 -0.439830 -0.425517 3.234875 0.276900 -2.782470 3.678596 21.188598 12.409493 18.916869 4.863339 -1.274052 -24.215615 -26.559695 -10.988520
-47.760391 0.248438 -52.920975 -5.492688 4.412044 -1.394853 -8.207953 23.392105 -5.554719 10.350935 -13.973068 11.700335 0.504161 -5.225861 -24.277067 6.782332 -5.107086 23.970718 18.151234 -18.600150 1.366248 12.190364 -19.092342 -6.061368 3.779684 1.279022 12.640352 -28.373229 33.892985 6.474809 4.346312 -5.732646 1.712150 4.180363 2.240657 -2.016850 -9.211999 -0.241727 1.430244 5.420633 -6.690381 -2.412957 0.686851 5.903319 2.746892 3.839460 2.289844 -9.603323 4.826919 4.062537 9.736401 -2.110073 -6.970795 1.109604 -0.822055 0.688472 -0.793796 2.881104 0.460335 -4.047198 2.515626 21.265329 13.849485 21.112389 6.498843 0.184784 -27.057279 -27.622887 -13.397540
-51.459652 0.591099 -54.853268 -5.746626 3.904871 -1.480927 -5.738203 23.723087 -4.641524 11.109898 -16.072180 10.786466 -3.994578 -5.194512 -24.940252 7.395622 -2.218953 24.291602 18.476725 -21.017419 1.125281 13.170929 -16.132354 -8.594371 1.789735 1.777043 15.024826 -27.502568 33.198781 6.124539 5.673676 -5.280683 1.786675 4.196411 1.928024 -2.801100 -9.809454 -0.277441 2.284351 4.808575 -6.635621 -2.439644 0.788957 6.138730 2.756242 3.536485 3.050622 -11.334952 5.100772 3.876970 11.573722 -2.609346 -7.025810 1.068672 -0.857741 0.678826 -0.854487 2.651776 0.835868 -5.054666 1.550151 21.373658 15.055949 22.846649 8.002670 1.186673 -29.533708 -28.613453 -15.419202
-54.476460 0.648320 -56.308388 -5.087333 4.119300 -1.304104 -4.389096 24.005283 -4.329829 10.746182 -18.467102 9.980456 -6.764939 -4.431259 -27.004911 8.310336 -0.382700 26.222340 16.015014 -23.789429 0.439540 14.297751 -12.513462 -9.909745 2.118995 2.099093 15.681515 -27.217419 31.932197 5.185493 5.204915 -5.090851 1.611405 4.517996 1.293014 -3.195843 -9.963552 0.369278 2.880105 4.982229 -8.273075 -4.138674 -0.066616 7.210694 4.415777 2.635889 2.906232 -12.466836 6.352863 4.209200 12.693763 -5.090274 -6.645785 -1.205317 0.730730 -0.031033 1.073817 2.332642 0.420104 -6.156115 -0.869781 21.012094 16.180970 24.677907 8.289763 1.433010 -29.514143 -29.058736 -15.165801
